<?xml version="1.0" encoding="UTF-8"?>
<svg width="25px" height="25px" viewBox="0 0 25 25" version="1.1" xmlns="http://www.w3.org/2000/svg" xmlns:xlink="http://www.w3.org/1999/xlink">
    <title>􀊫</title>
    <g id="Page-1" stroke="none" stroke-width="1" fill="none" fill-rule="evenodd">
        <g id="Desktop-HD" transform="translate(-808.000000, -576.000000)" fill="#FFFFFF" fill-rule="nonzero">
            <path d="M831.416016,600.907227 C831.686849,600.907227 831.92806,600.841634 832.139648,600.710449 C832.351237,600.579264 832.518392,600.405762 832.641113,600.189941 C832.763835,599.974121 832.825195,599.730794 832.825195,599.459961 C832.825195,599.273763 832.793457,599.091797 832.72998,598.914062 C832.666504,598.736328 832.562826,598.579753 832.418945,598.444336 L832.418945,598.444336 L826.435,592.45 L826.656997,592.150752 C826.978821,591.696856 827.262193,591.215374 827.507113,590.706308 L827.683594,590.319336 C828.191406,589.142904 828.445312,587.881836 828.445312,586.536133 C828.445312,585.19043 828.191406,583.929362 827.683594,582.75293 C827.175781,581.576497 826.473307,580.539714 825.576172,579.642578 C824.679036,578.745443 823.642253,578.042969 822.46582,577.535156 C821.289388,577.027344 820.02832,576.773438 818.682617,576.773438 C817.345378,576.773438 816.086426,577.027344 814.905762,577.535156 C813.725098,578.042969 812.686198,578.743327 811.789062,579.63623 C810.891927,580.529134 810.189453,581.565918 809.681641,582.746582 C809.173828,583.927246 808.919922,585.19043 808.919922,586.536133 C808.919922,587.881836 809.173828,589.142904 809.681641,590.319336 C810.189453,591.495768 810.891927,592.532552 811.789062,593.429688 C812.686198,594.326823 813.722982,595.029297 814.899414,595.537109 C816.075846,596.044922 817.336914,596.298828 818.682617,596.298828 C820.02832,596.298828 821.289388,596.044922 822.46582,595.537109 C823.119394,595.254991 823.729866,594.912793 824.297237,594.510513 L824.361,594.464 L830.375,600.488281 C830.48291,600.596191 830.600342,600.682678 830.727295,600.747742 L830.857422,600.805664 C831.035156,600.873372 831.221354,600.907227 831.416016,600.907227 Z M818.682617,594.191406 C817.633138,594.191406 816.647135,593.990397 815.724609,593.588379 C814.802083,593.186361 813.987467,592.634115 813.280762,591.931641 C812.574056,591.229167 812.02181,590.416667 811.624023,589.494141 C811.226237,588.571615 811.027344,587.585612 811.027344,586.536133 C811.027344,585.486654 811.226237,584.500651 811.624023,583.578125 C812.02181,582.655599 812.574056,581.840983 813.280762,581.134277 C813.987467,580.427572 814.802083,579.875326 815.724609,579.477539 C816.647135,579.079753 817.633138,578.880859 818.682617,578.880859 C819.732096,578.880859 820.718099,579.079753 821.640625,579.477539 C822.563151,579.875326 823.375651,580.427572 824.078125,581.134277 C824.780599,581.840983 825.332845,582.655599 825.734863,583.578125 C826.136882,584.500651 826.337891,585.486654 826.337891,586.536133 C826.337891,587.585612 826.136882,588.571615 825.734863,589.494141 C825.332845,590.416667 824.780599,591.229167 824.078125,591.931641 C823.375651,592.634115 822.563151,593.186361 821.640625,593.588379 C820.718099,593.990397 819.732096,594.191406 818.682617,594.191406 Z" id="􀊫"></path>
        </g>
    </g>
</svg>