<?xml version="1.0" encoding="UTF-8"?>
<svg width="101px" height="20px" viewBox="0 0 101 20" version="1.1" xmlns="http://www.w3.org/2000/svg" xmlns:xlink="http://www.w3.org/1999/xlink">
    <title>thepeople</title>
    <g id="Page-1" stroke="none" stroke-width="1" fill="none" fill-rule="evenodd">
        <g id="Desktop-HD" transform="translate(-228.000000, -30.000000)" fill-rule="nonzero">
            <g id="Group-2" transform="translate(228.000000, 13.000000)">
                <g id="thepeople." transform="translate(0.478516, 17.322266)">
                    <path d="M5.22460938,14.7558594 C5.50455729,14.7558594 5.76660156,14.7444661 6.01074219,14.7216797 C6.25488281,14.6988932 6.46158854,14.671224 6.63085938,14.6386719 L6.63085938,12.5292969 C6.50716146,12.5423177 6.38834635,12.5520833 6.27441406,12.5585938 C6.16048177,12.5651042 6.01888021,12.5683594 5.84960938,12.5683594 C5.38085938,12.5683594 5.03580729,12.4609375 4.81445312,12.2460938 C4.59309896,12.03125 4.48242188,11.6829427 4.48242188,11.2011719 L4.48242188,6.14257812 L6.63085938,6.14257812 L6.63085938,3.99414062 L4.48242188,3.99414062 L4.48242188,1.42578125 L1.6015625,1.42578125 L1.6015625,3.99414062 L0,3.99414062 L0,6.14257812 L1.6015625,6.14257812 L1.6015625,11.7773438 C1.6015625,12.8385417 1.88639323,13.6002604 2.45605469,14.0625 C3.02571615,14.5247396 3.94856771,14.7558594 5.22460938,14.7558594 Z M11.2988281,14.6777344 L11.2988281,8.515625 C11.2988281,8.03385417 11.3850911,7.6155599 11.5576172,7.26074219 C11.7301432,6.90592448 11.9726562,6.62923177 12.2851562,6.43066406 C12.5976562,6.23209635 12.9720052,6.1328125 13.4082031,6.1328125 C14.078776,6.1328125 14.5768229,6.3297526 14.9023438,6.72363281 C15.2278646,7.11751302 15.390625,7.69205729 15.390625,8.44726562 L15.390625,14.6777344 L18.2421875,14.6777344 L18.2421875,7.8125 C18.2421875,6.95963542 18.0989583,6.23209635 17.8125,5.62988281 C17.5260417,5.02766927 17.1110026,4.56705729 16.5673828,4.24804688 C16.023763,3.92903646 15.3548177,3.76953125 14.5605469,3.76953125 C13.7923177,3.76953125 13.1445312,3.94042969 12.6171875,4.28222656 C12.0898438,4.62402344 11.6992188,5.09440104 11.4453125,5.69335938 L11.2988281,5.69335938 L11.2988281,0 L8.44726562,0 L8.44726562,14.6777344 L11.2988281,14.6777344 Z M25.0585938,14.9023438 C25.8333333,14.9023438 26.5071615,14.8030599 27.0800781,14.6044922 C27.6529948,14.4059245 28.133138,14.1471354 28.5205078,13.828125 C28.9078776,13.5091146 29.2122396,13.1624349 29.4335938,12.7880859 C29.6549479,12.413737 29.8079427,12.0540365 29.8925781,11.7089844 L29.9121094,11.6015625 L27.265625,11.6015625 L27.2460938,11.6601562 C27.1809896,11.8098958 27.0572917,11.9710286 26.875,12.1435547 C26.6927083,12.3160807 26.4567057,12.4641927 26.1669922,12.5878906 C25.8772786,12.7115885 25.5273438,12.7734375 25.1171875,12.7734375 C24.609375,12.7734375 24.1699219,12.6595052 23.7988281,12.4316406 C23.4277344,12.203776 23.1429036,11.8782552 22.9443359,11.4550781 C22.774135,11.0923549 22.6768774,10.665059 22.652563,10.1731904 L22.6484844,10.0107344 L30,10.0097656 L30,9.13085938 C30,8.05013021 29.7949219,7.1077474 29.3847656,6.30371094 C28.9746094,5.49967448 28.3919271,4.87630208 27.6367188,4.43359375 C26.8815104,3.99088542 25.9830729,3.76953125 24.9414062,3.76953125 C23.8997396,3.76953125 22.9964193,3.99739583 22.2314453,4.453125 C21.4664714,4.90885417 20.8740234,5.55501302 20.4541016,6.39160156 C20.0341797,7.2281901 19.8242188,8.21289062 19.8242188,9.34570312 L19.8242188,9.35546875 C19.8242188,10.4947917 20.0341797,11.4794922 20.4541016,12.3095703 C20.8740234,13.1396484 21.4746094,13.7792969 22.2558594,14.2285156 C23.0371094,14.6777344 23.9713542,14.9023438 25.0585938,14.9023438 Z M27.2654844,8.22273438 L22.6774844,8.22273438 L22.7020886,8.03611288 C22.7515147,7.72892751 22.8338914,7.45256696 22.9492188,7.20703125 C23.1510417,6.77734375 23.4277344,6.45182292 23.7792969,6.23046875 C24.1308594,6.00911458 24.5345052,5.8984375 24.9902344,5.8984375 C25.4459635,5.8984375 25.8463542,6.00585938 26.1914062,6.22070312 C26.5364583,6.43554688 26.8066406,6.7578125 27.0019531,7.1875 C27.1135603,7.43303571 27.1932797,7.71152211 27.2411113,8.02295918 L27.2654844,8.22273438 Z M34.5214844,18.203125 L34.5214844,12.9394531 L34.6679688,12.9394531 C34.8502604,13.3365885 35.0992839,13.6783854 35.4150391,13.9648438 C35.7307943,14.2513021 36.0986328,14.4726562 36.5185547,14.6289062 C36.9384766,14.7851562 37.3958333,14.8632812 37.890625,14.8632812 C38.7955729,14.8632812 39.5703125,14.6419271 40.2148438,14.1992188 C40.859375,13.7565104 41.3557943,13.1233724 41.7041016,12.2998047 C42.0524089,11.476237 42.2265625,10.4915365 42.2265625,9.34570312 L42.2265625,9.32617188 C42.2265625,8.18033854 42.0507812,7.19726562 41.6992188,6.37695312 C41.3476562,5.55664062 40.8479818,4.9235026 40.2001953,4.47753906 C39.5524089,4.03157552 38.7792969,3.80859375 37.8808594,3.80859375 C37.3795573,3.80859375 36.9205729,3.88509115 36.5039062,4.03808594 C36.0872396,4.19108073 35.7242839,4.40592448 35.4150391,4.68261719 C35.1057943,4.9593099 34.8567708,5.29622396 34.6679688,5.69335938 L34.5214844,5.69335938 L34.5214844,3.99414062 L31.6699219,3.99414062 L31.6699219,18.203125 L34.5214844,18.203125 Z M36.9140625,12.5 C36.4257812,12.5 36.0009766,12.3714193 35.6396484,12.1142578 C35.2783203,11.8570964 34.9967448,11.492513 34.7949219,11.0205078 C34.593099,10.5485026 34.4921875,9.99023438 34.4921875,9.34570312 L34.4921875,9.32617188 C34.4921875,8.66861979 34.5914714,8.10546875 34.7900391,7.63671875 C34.9886068,7.16796875 35.2701823,6.80664062 35.6347656,6.55273438 C35.999349,6.29882812 36.4257812,6.171875 36.9140625,6.171875 C37.4153646,6.171875 37.8450521,6.29882812 38.203125,6.55273438 C38.5611979,6.80664062 38.8378906,7.16796875 39.0332031,7.63671875 C39.2285156,8.10546875 39.3261719,8.66861979 39.3261719,9.32617188 L39.3261719,9.34570312 C39.3261719,9.99023438 39.2285156,10.5485026 39.0332031,11.0205078 C38.8378906,11.492513 38.5611979,11.8570964 38.203125,12.1142578 C37.8450521,12.3714193 37.4153646,12.5 36.9140625,12.5 Z M48.6425781,14.9023438 C49.4173177,14.9023438 50.0911458,14.8030599 50.6640625,14.6044922 C51.2369792,14.4059245 51.7171224,14.1471354 52.1044922,13.828125 C52.491862,13.5091146 52.796224,13.1624349 53.0175781,12.7880859 C53.2389323,12.413737 53.3919271,12.0540365 53.4765625,11.7089844 L53.4960938,11.6015625 L50.8496094,11.6015625 L50.8300781,11.6601562 C50.764974,11.8098958 50.641276,11.9710286 50.4589844,12.1435547 C50.2766927,12.3160807 50.0406901,12.4641927 49.7509766,12.5878906 C49.461263,12.7115885 49.1113281,12.7734375 48.7011719,12.7734375 C48.1933594,12.7734375 47.7539062,12.6595052 47.3828125,12.4316406 C47.0117188,12.203776 46.726888,11.8782552 46.5283203,11.4550781 C46.3581194,11.0923549 46.2608618,10.665059 46.2365474,10.1731904 L46.2314844,10.0107344 L53.5839844,10.0097656 L53.5839844,9.13085938 C53.5839844,8.05013021 53.3789062,7.1077474 52.96875,6.30371094 C52.5585938,5.49967448 51.9759115,4.87630208 51.2207031,4.43359375 C50.4654948,3.99088542 49.5670573,3.76953125 48.5253906,3.76953125 C47.483724,3.76953125 46.5804036,3.99739583 45.8154297,4.453125 C45.0504557,4.90885417 44.4580078,5.55501302 44.0380859,6.39160156 C43.6181641,7.2281901 43.4082031,8.21289062 43.4082031,9.34570312 L43.4082031,9.35546875 C43.4082031,10.4947917 43.6181641,11.4794922 44.0380859,12.3095703 C44.4580078,13.1396484 45.0585938,13.7792969 45.8398438,14.2285156 C46.6210938,14.6777344 47.5553385,14.9023438 48.6425781,14.9023438 Z M50.8494844,8.22273438 L46.2614844,8.22273438 L46.286073,8.03611288 C46.335499,7.72892751 46.4178757,7.45256696 46.5332031,7.20703125 C46.735026,6.77734375 47.0117188,6.45182292 47.3632813,6.23046875 C47.7148438,6.00911458 48.1184896,5.8984375 48.5742188,5.8984375 C49.0299479,5.8984375 49.4303385,6.00585938 49.7753906,6.22070312 C50.1204427,6.43554688 50.390625,6.7578125 50.5859375,7.1875 C50.6975446,7.43303571 50.777264,7.71152211 50.8250957,8.02295918 L50.8494844,8.22273438 Z M60.0292969,14.9023438 C61.1230469,14.9023438 62.0638021,14.6809896 62.8515625,14.2382812 C63.6393229,13.7955729 64.2447917,13.1575521 64.6679688,12.3242188 C65.0911458,11.4908854 65.3027344,10.4947917 65.3027344,9.3359375 L65.3027344,9.31640625 C65.3027344,8.1640625 65.0895182,7.17447917 64.6630859,6.34765625 C64.2366536,5.52083333 63.6295573,4.8844401 62.8417969,4.43847656 C62.0540365,3.99251302 61.1165365,3.76953125 60.0292969,3.76953125 C58.9485677,3.76953125 58.0143229,3.99251302 57.2265625,4.43847656 C56.4388021,4.8844401 55.8300781,5.52246094 55.4003906,6.35253906 C54.9707031,7.18261719 54.7558594,8.17057292 54.7558594,9.31640625 L54.7558594,9.3359375 C54.7558594,10.4947917 54.9674479,11.4908854 55.390625,12.3242188 C55.8138021,13.1575521 56.4208984,13.7955729 57.2119141,14.2382812 C58.0029297,14.6809896 58.9420573,14.9023438 60.0292969,14.9023438 Z M60.0292969,12.6660156 C59.5345052,12.6660156 59.1113281,12.5358073 58.7597656,12.2753906 C58.4082031,12.014974 58.1396484,11.6357422 57.9541016,11.1376953 C57.7685547,10.6396484 57.6757812,10.0423177 57.6757812,9.34570312 L57.6757812,9.32617188 C57.6757812,8.62955729 57.7701823,8.03385417 57.9589844,7.5390625 C58.1477865,7.04427083 58.4179688,6.66503906 58.7695312,6.40136719 C59.1210938,6.13769531 59.5410156,6.00585938 60.0292969,6.00585938 C60.5240885,6.00585938 60.9472656,6.13769531 61.2988281,6.40136719 C61.6503906,6.66503906 61.9205729,7.04427083 62.109375,7.5390625 C62.2981771,8.03385417 62.3925781,8.62955729 62.3925781,9.32617188 L62.3925781,9.34570312 C62.3925781,10.0423177 62.2981771,10.6380208 62.109375,11.1328125 C61.9205729,11.6276042 61.6520182,12.0068359 61.3037109,12.2705078 C60.9554036,12.5341797 60.530599,12.6660156 60.0292969,12.6660156 Z M69.8242188,18.203125 L69.8242188,12.9394531 L69.9707031,12.9394531 C70.1529948,13.3365885 70.4020182,13.6783854 70.7177734,13.9648438 C71.0335286,14.2513021 71.4013672,14.4726562 71.8212891,14.6289062 C72.2412109,14.7851562 72.6985677,14.8632812 73.1933594,14.8632812 C74.0983073,14.8632812 74.8730469,14.6419271 75.5175781,14.1992188 C76.1621094,13.7565104 76.6585286,13.1233724 77.0068359,12.2998047 C77.3551432,11.476237 77.5292969,10.4915365 77.5292969,9.34570312 L77.5292969,9.32617188 C77.5292969,8.18033854 77.3535156,7.19726562 77.0019531,6.37695312 C76.6503906,5.55664062 76.1507161,4.9235026 75.5029297,4.47753906 C74.8551432,4.03157552 74.0820312,3.80859375 73.1835938,3.80859375 C72.6822917,3.80859375 72.2233073,3.88509115 71.8066406,4.03808594 C71.389974,4.19108073 71.0270182,4.40592448 70.7177734,4.68261719 C70.4085286,4.9593099 70.1595052,5.29622396 69.9707031,5.69335938 L69.8242188,5.69335938 L69.8242188,3.99414062 L66.9726562,3.99414062 L66.9726562,18.203125 L69.8242188,18.203125 Z M72.2167969,12.5 C71.7285156,12.5 71.3037109,12.3714193 70.9423828,12.1142578 C70.5810547,11.8570964 70.2994792,11.492513 70.0976562,11.0205078 C69.8958333,10.5485026 69.7949219,9.99023438 69.7949219,9.34570312 L69.7949219,9.32617188 C69.7949219,8.66861979 69.8942057,8.10546875 70.0927734,7.63671875 C70.2913411,7.16796875 70.5729167,6.80664062 70.9375,6.55273438 C71.3020833,6.29882812 71.7285156,6.171875 72.2167969,6.171875 C72.718099,6.171875 73.1477865,6.29882812 73.5058594,6.55273438 C73.8639323,6.80664062 74.140625,7.16796875 74.3359375,7.63671875 C74.53125,8.10546875 74.6289062,8.66861979 74.6289062,9.32617188 L74.6289062,9.34570312 C74.6289062,9.99023438 74.53125,10.5485026 74.3359375,11.0205078 C74.140625,11.492513 73.8639323,11.8570964 73.5058594,12.1142578 C73.1477865,12.3714193 72.718099,12.5 72.2167969,12.5 Z M82.1484375,14.6777344 L82.1484375,0 L79.296875,0 L79.296875,14.6777344 L82.1484375,14.6777344 Z M89.140625,14.9023438 C89.9153646,14.9023438 90.5891927,14.8030599 91.1621094,14.6044922 C91.735026,14.4059245 92.2151693,14.1471354 92.6025391,13.828125 C92.9899089,13.5091146 93.2942708,13.1624349 93.515625,12.7880859 C93.7369792,12.413737 93.889974,12.0540365 93.9746094,11.7089844 L93.9941406,11.6015625 L91.3476562,11.6015625 L91.328125,11.6601562 C91.2630208,11.8098958 91.1393229,11.9710286 90.9570312,12.1435547 C90.7747396,12.3160807 90.538737,12.4641927 90.2490234,12.5878906 C89.9593099,12.7115885 89.609375,12.7734375 89.1992188,12.7734375 C88.6914062,12.7734375 88.2519531,12.6595052 87.8808594,12.4316406 C87.5097656,12.203776 87.2249349,11.8782552 87.0263672,11.4550781 C86.8561663,11.0923549 86.7589086,10.665059 86.7345942,10.1731904 L86.7304844,10.0107344 L94.0820312,10.0097656 L94.0820312,9.13085938 C94.0820312,8.05013021 93.8769531,7.1077474 93.4667969,6.30371094 C93.0566406,5.49967448 92.4739583,4.87630208 91.71875,4.43359375 C90.9635417,3.99088542 90.0651042,3.76953125 89.0234375,3.76953125 C87.9817708,3.76953125 87.0784505,3.99739583 86.3134766,4.453125 C85.5485026,4.90885417 84.9560547,5.55501302 84.5361328,6.39160156 C84.1162109,7.2281901 83.90625,8.21289062 83.90625,9.34570312 L83.90625,9.35546875 C83.90625,10.4947917 84.1162109,11.4794922 84.5361328,12.3095703 C84.9560547,13.1396484 85.5566406,13.7792969 86.3378906,14.2285156 C87.1191406,14.6777344 88.0533854,14.9023438 89.140625,14.9023438 Z M91.3474844,8.22273438 L86.7594844,8.22273438 L86.7841199,8.03611288 C86.8335459,7.72892751 86.9159226,7.45256696 87.03125,7.20703125 C87.2330729,6.77734375 87.5097656,6.45182292 87.8613281,6.23046875 C88.2128906,6.00911458 88.6165365,5.8984375 89.0722656,5.8984375 C89.5279948,5.8984375 89.9283854,6.00585938 90.2734375,6.22070312 C90.6184896,6.43554688 90.8886719,6.7578125 91.0839844,7.1875 C91.1955915,7.43303571 91.2753109,7.71152211 91.3231425,8.02295918 L91.3474844,8.22273438 Z" id="thepeople" fill="#FFB500"></path>
                    <path d="M97.6660156,14.9023438 C98.1542969,14.9023438 98.5579427,14.7428385 98.8769531,14.4238281 C99.1959635,14.1048177 99.3554688,13.7076823 99.3554688,13.2324219 C99.3554688,12.7571615 99.1959635,12.3616536 98.8769531,12.0458984 C98.5579427,11.7301432 98.1542969,11.5722656 97.6660156,11.5722656 C97.1842448,11.5722656 96.7822266,11.7301432 96.4599609,12.0458984 C96.1376953,12.3616536 95.9765625,12.7571615 95.9765625,13.2324219 C95.9765625,13.7076823 96.1376953,14.1048177 96.4599609,14.4238281 C96.7822266,14.7428385 97.1842448,14.9023438 97.6660156,14.9023438 Z" id="." fill="#000000"></path>
                </g>
            </g>
        </g>
    </g>
</svg>